%TF.GenerationSoftware,KiCad,Pcbnew,6.0.11+dfsg-1*%
%TF.CreationDate,2025-01-09T09:17:59-08:00*%
%TF.ProjectId,eUSB,65555342-2e6b-4696-9361-645f70636258,rev?*%
%TF.SameCoordinates,Original*%
%TF.FileFunction,Legend,Top*%
%TF.FilePolarity,Positive*%
%FSLAX46Y46*%
G04 Gerber Fmt 4.6, Leading zero omitted, Abs format (unit mm)*
G04 Created by KiCad (PCBNEW 6.0.11+dfsg-1) date 2025-01-09 09:17:59*
%MOMM*%
%LPD*%
G01*
G04 APERTURE LIST*
%ADD10C,0.120000*%
%ADD11C,0.127000*%
G04 APERTURE END LIST*
D10*
%TO.C,R2*%
X156732500Y-93201258D02*
X156732500Y-92726742D01*
X155687500Y-93201258D02*
X155687500Y-92726742D01*
%TO.C,R1*%
X164479500Y-93201258D02*
X164479500Y-92726742D01*
X163434500Y-93201258D02*
X163434500Y-92726742D01*
%TO.C,D2*%
X153345000Y-94522000D02*
X155265000Y-94522000D01*
X155265000Y-94522000D02*
X155265000Y-91837000D01*
X153345000Y-91837000D02*
X153345000Y-94522000D01*
%TO.C,D1*%
X164902000Y-94522000D02*
X166822000Y-94522000D01*
X164902000Y-91837000D02*
X164902000Y-94522000D01*
X166822000Y-94522000D02*
X166822000Y-91837000D01*
%TO.C,J1*%
X166384375Y-88855792D02*
X166384375Y-90185792D01*
X163807593Y-87634352D02*
X163807593Y-90235000D01*
X166435000Y-87635000D02*
X163807593Y-87635000D01*
X153615000Y-90235000D02*
X153615000Y-85035000D01*
X153615000Y-85035000D02*
X166435000Y-85035000D01*
X166435000Y-85035000D02*
X166435000Y-87635000D01*
X166384375Y-90185792D02*
X165054375Y-90185792D01*
X153615000Y-90235000D02*
X163807593Y-90235000D01*
D11*
%TO.C,J2*%
X155420000Y-98187000D02*
X155620000Y-98187000D01*
X164620000Y-98187000D02*
X164420000Y-98187000D01*
%TD*%
M02*
