%TF.GenerationSoftware,KiCad,Pcbnew,6.0.11+dfsg-1*%
%TF.CreationDate,2025-01-09T09:17:59-08:00*%
%TF.ProjectId,eUSB,65555342-2e6b-4696-9361-645f70636258,rev?*%
%TF.SameCoordinates,Original*%
%TF.FileFunction,Legend,Bot*%
%TF.FilePolarity,Positive*%
%FSLAX46Y46*%
G04 Gerber Fmt 4.6, Leading zero omitted, Abs format (unit mm)*
G04 Created by KiCad (PCBNEW 6.0.11+dfsg-1) date 2025-01-09 09:17:59*
%MOMM*%
%LPD*%
G01*
G04 APERTURE LIST*
%ADD10C,0.150000*%
G04 APERTURE END LIST*
D10*
X155766761Y-67585390D02*
X155814380Y-67490152D01*
X155814380Y-67299676D01*
X155766761Y-67204438D01*
X155671523Y-67156819D01*
X155290571Y-67156819D01*
X155195333Y-67204438D01*
X155147714Y-67299676D01*
X155147714Y-67490152D01*
X155195333Y-67585390D01*
X155290571Y-67633009D01*
X155385809Y-67633009D01*
X155481047Y-67156819D01*
X154814380Y-68061580D02*
X155623904Y-68061580D01*
X155719142Y-68109200D01*
X155766761Y-68156819D01*
X155814380Y-68252057D01*
X155814380Y-68442533D01*
X155766761Y-68537771D01*
X155719142Y-68585390D01*
X155623904Y-68633009D01*
X154814380Y-68633009D01*
X155766761Y-69061580D02*
X155814380Y-69204438D01*
X155814380Y-69442533D01*
X155766761Y-69537771D01*
X155719142Y-69585390D01*
X155623904Y-69633009D01*
X155528666Y-69633009D01*
X155433428Y-69585390D01*
X155385809Y-69537771D01*
X155338190Y-69442533D01*
X155290571Y-69252057D01*
X155242952Y-69156819D01*
X155195333Y-69109200D01*
X155100095Y-69061580D01*
X155004857Y-69061580D01*
X154909619Y-69109200D01*
X154862000Y-69156819D01*
X154814380Y-69252057D01*
X154814380Y-69490152D01*
X154862000Y-69633009D01*
X155290571Y-70394914D02*
X155338190Y-70537771D01*
X155385809Y-70585390D01*
X155481047Y-70633009D01*
X155623904Y-70633009D01*
X155719142Y-70585390D01*
X155766761Y-70537771D01*
X155814380Y-70442533D01*
X155814380Y-70061580D01*
X154814380Y-70061580D01*
X154814380Y-70394914D01*
X154862000Y-70490152D01*
X154909619Y-70537771D01*
X155004857Y-70585390D01*
X155100095Y-70585390D01*
X155195333Y-70537771D01*
X155242952Y-70490152D01*
X155290571Y-70394914D01*
X155290571Y-70061580D01*
X155528666Y-71775866D02*
X155528666Y-72252057D01*
X155814380Y-71680628D02*
X154814380Y-72013961D01*
X155814380Y-72347295D01*
X155814380Y-73109200D02*
X154814380Y-73109200D01*
X155766761Y-73109200D02*
X155814380Y-73013961D01*
X155814380Y-72823485D01*
X155766761Y-72728247D01*
X155719142Y-72680628D01*
X155623904Y-72633009D01*
X155338190Y-72633009D01*
X155242952Y-72680628D01*
X155195333Y-72728247D01*
X155147714Y-72823485D01*
X155147714Y-73013961D01*
X155195333Y-73109200D01*
X155814380Y-74013961D02*
X155290571Y-74013961D01*
X155195333Y-73966342D01*
X155147714Y-73871104D01*
X155147714Y-73680628D01*
X155195333Y-73585390D01*
X155766761Y-74013961D02*
X155814380Y-73918723D01*
X155814380Y-73680628D01*
X155766761Y-73585390D01*
X155671523Y-73537771D01*
X155576285Y-73537771D01*
X155481047Y-73585390D01*
X155433428Y-73680628D01*
X155433428Y-73918723D01*
X155385809Y-74013961D01*
X155147714Y-74490152D02*
X156147714Y-74490152D01*
X155195333Y-74490152D02*
X155147714Y-74585390D01*
X155147714Y-74775866D01*
X155195333Y-74871104D01*
X155242952Y-74918723D01*
X155338190Y-74966342D01*
X155623904Y-74966342D01*
X155719142Y-74918723D01*
X155766761Y-74871104D01*
X155814380Y-74775866D01*
X155814380Y-74585390D01*
X155766761Y-74490152D01*
X155147714Y-75252057D02*
X155147714Y-75633009D01*
X154814380Y-75394914D02*
X155671523Y-75394914D01*
X155766761Y-75442533D01*
X155814380Y-75537771D01*
X155814380Y-75633009D01*
X155766761Y-76347295D02*
X155814380Y-76252057D01*
X155814380Y-76061580D01*
X155766761Y-75966342D01*
X155671523Y-75918723D01*
X155290571Y-75918723D01*
X155195333Y-75966342D01*
X155147714Y-76061580D01*
X155147714Y-76252057D01*
X155195333Y-76347295D01*
X155290571Y-76394914D01*
X155385809Y-76394914D01*
X155481047Y-75918723D01*
X155814380Y-76823485D02*
X155147714Y-76823485D01*
X155338190Y-76823485D02*
X155242952Y-76871104D01*
X155195333Y-76918723D01*
X155147714Y-77013961D01*
X155147714Y-77109200D01*
X154814380Y-78061580D02*
X155814380Y-78394914D01*
X154814380Y-78728247D01*
X155719142Y-79061580D02*
X155766761Y-79109200D01*
X155814380Y-79061580D01*
X155766761Y-79013961D01*
X155719142Y-79061580D01*
X155814380Y-79061580D01*
X154909619Y-79490152D02*
X154862000Y-79537771D01*
X154814380Y-79633009D01*
X154814380Y-79871104D01*
X154862000Y-79966342D01*
X154909619Y-80013961D01*
X155004857Y-80061580D01*
X155100095Y-80061580D01*
X155242952Y-80013961D01*
X155814380Y-79442533D01*
X155814380Y-80061580D01*
X157329142Y-65823485D02*
X157376761Y-65775866D01*
X157424380Y-65633009D01*
X157424380Y-65537771D01*
X157376761Y-65394914D01*
X157281523Y-65299676D01*
X157186285Y-65252057D01*
X156995809Y-65204438D01*
X156852952Y-65204438D01*
X156662476Y-65252057D01*
X156567238Y-65299676D01*
X156472000Y-65394914D01*
X156424380Y-65537771D01*
X156424380Y-65633009D01*
X156472000Y-65775866D01*
X156519619Y-65823485D01*
X157424380Y-66252057D02*
X156757714Y-66252057D01*
X156948190Y-66252057D02*
X156852952Y-66299676D01*
X156805333Y-66347295D01*
X156757714Y-66442533D01*
X156757714Y-66537771D01*
X157376761Y-67252057D02*
X157424380Y-67156819D01*
X157424380Y-66966342D01*
X157376761Y-66871104D01*
X157281523Y-66823485D01*
X156900571Y-66823485D01*
X156805333Y-66871104D01*
X156757714Y-66966342D01*
X156757714Y-67156819D01*
X156805333Y-67252057D01*
X156900571Y-67299676D01*
X156995809Y-67299676D01*
X157091047Y-66823485D01*
X157424380Y-68156819D02*
X156900571Y-68156819D01*
X156805333Y-68109200D01*
X156757714Y-68013961D01*
X156757714Y-67823485D01*
X156805333Y-67728247D01*
X157376761Y-68156819D02*
X157424380Y-68061580D01*
X157424380Y-67823485D01*
X157376761Y-67728247D01*
X157281523Y-67680628D01*
X157186285Y-67680628D01*
X157091047Y-67728247D01*
X157043428Y-67823485D01*
X157043428Y-68061580D01*
X156995809Y-68156819D01*
X156757714Y-68490152D02*
X156757714Y-68871104D01*
X156424380Y-68633009D02*
X157281523Y-68633009D01*
X157376761Y-68680628D01*
X157424380Y-68775866D01*
X157424380Y-68871104D01*
X157376761Y-69585390D02*
X157424380Y-69490152D01*
X157424380Y-69299676D01*
X157376761Y-69204438D01*
X157281523Y-69156819D01*
X156900571Y-69156819D01*
X156805333Y-69204438D01*
X156757714Y-69299676D01*
X156757714Y-69490152D01*
X156805333Y-69585390D01*
X156900571Y-69633009D01*
X156995809Y-69633009D01*
X157091047Y-69156819D01*
X157424380Y-70490152D02*
X156424380Y-70490152D01*
X157376761Y-70490152D02*
X157424380Y-70394914D01*
X157424380Y-70204438D01*
X157376761Y-70109200D01*
X157329142Y-70061580D01*
X157233904Y-70013961D01*
X156948190Y-70013961D01*
X156852952Y-70061580D01*
X156805333Y-70109200D01*
X156757714Y-70204438D01*
X156757714Y-70394914D01*
X156805333Y-70490152D01*
X156757714Y-71585390D02*
X156757714Y-71966342D01*
X157424380Y-71728247D02*
X156567238Y-71728247D01*
X156472000Y-71775866D01*
X156424380Y-71871104D01*
X156424380Y-71966342D01*
X157424380Y-72442533D02*
X157376761Y-72347295D01*
X157329142Y-72299676D01*
X157233904Y-72252057D01*
X156948190Y-72252057D01*
X156852952Y-72299676D01*
X156805333Y-72347295D01*
X156757714Y-72442533D01*
X156757714Y-72585390D01*
X156805333Y-72680628D01*
X156852952Y-72728247D01*
X156948190Y-72775866D01*
X157233904Y-72775866D01*
X157329142Y-72728247D01*
X157376761Y-72680628D01*
X157424380Y-72585390D01*
X157424380Y-72442533D01*
X157424380Y-73204438D02*
X156757714Y-73204438D01*
X156948190Y-73204438D02*
X156852952Y-73252057D01*
X156805333Y-73299676D01*
X156757714Y-73394914D01*
X156757714Y-73490152D01*
X157424380Y-74585390D02*
X156424380Y-74585390D01*
X157424380Y-75156819D01*
X156424380Y-75156819D01*
X157424380Y-75633009D02*
X156424380Y-75633009D01*
X156900571Y-75633009D02*
X156900571Y-76204438D01*
X157424380Y-76204438D02*
X156424380Y-76204438D01*
X157376761Y-76633009D02*
X157424380Y-76775866D01*
X157424380Y-77013961D01*
X157376761Y-77109200D01*
X157329142Y-77156819D01*
X157233904Y-77204438D01*
X157138666Y-77204438D01*
X157043428Y-77156819D01*
X156995809Y-77109200D01*
X156948190Y-77013961D01*
X156900571Y-76823485D01*
X156852952Y-76728247D01*
X156805333Y-76680628D01*
X156710095Y-76633009D01*
X156614857Y-76633009D01*
X156519619Y-76680628D01*
X156472000Y-76728247D01*
X156424380Y-76823485D01*
X156424380Y-77061580D01*
X156472000Y-77204438D01*
X157329142Y-78966342D02*
X157376761Y-78918723D01*
X157424380Y-78775866D01*
X157424380Y-78680628D01*
X157376761Y-78537771D01*
X157281523Y-78442533D01*
X157186285Y-78394914D01*
X156995809Y-78347295D01*
X156852952Y-78347295D01*
X156662476Y-78394914D01*
X156567238Y-78442533D01*
X156472000Y-78537771D01*
X156424380Y-78680628D01*
X156424380Y-78775866D01*
X156472000Y-78918723D01*
X156519619Y-78966342D01*
X157424380Y-79394914D02*
X156757714Y-79394914D01*
X156424380Y-79394914D02*
X156472000Y-79347295D01*
X156519619Y-79394914D01*
X156472000Y-79442533D01*
X156424380Y-79394914D01*
X156519619Y-79394914D01*
X157376761Y-79823485D02*
X157424380Y-79918723D01*
X157424380Y-80109200D01*
X157376761Y-80204438D01*
X157281523Y-80252057D01*
X157233904Y-80252057D01*
X157138666Y-80204438D01*
X157091047Y-80109200D01*
X157091047Y-79966342D01*
X157043428Y-79871104D01*
X156948190Y-79823485D01*
X156900571Y-79823485D01*
X156805333Y-79871104D01*
X156757714Y-79966342D01*
X156757714Y-80109200D01*
X156805333Y-80204438D01*
X157376761Y-81109200D02*
X157424380Y-81013961D01*
X157424380Y-80823485D01*
X157376761Y-80728247D01*
X157329142Y-80680628D01*
X157233904Y-80633009D01*
X156948190Y-80633009D01*
X156852952Y-80680628D01*
X156805333Y-80728247D01*
X156757714Y-80823485D01*
X156757714Y-81013961D01*
X156805333Y-81109200D01*
X157424380Y-81680628D02*
X157376761Y-81585390D01*
X157329142Y-81537771D01*
X157233904Y-81490152D01*
X156948190Y-81490152D01*
X156852952Y-81537771D01*
X156805333Y-81585390D01*
X156757714Y-81680628D01*
X156757714Y-81823485D01*
X156805333Y-81918723D01*
X156852952Y-81966342D01*
X156948190Y-82013961D01*
X157233904Y-82013961D01*
X157329142Y-81966342D01*
X157376761Y-81918723D01*
X157424380Y-81823485D01*
X157424380Y-81680628D01*
X158034380Y-68966342D02*
X158748666Y-68966342D01*
X158891523Y-68918723D01*
X158986761Y-68823485D01*
X159034380Y-68680628D01*
X159034380Y-68585390D01*
X159034380Y-69871104D02*
X158510571Y-69871104D01*
X158415333Y-69823485D01*
X158367714Y-69728247D01*
X158367714Y-69537771D01*
X158415333Y-69442533D01*
X158986761Y-69871104D02*
X159034380Y-69775866D01*
X159034380Y-69537771D01*
X158986761Y-69442533D01*
X158891523Y-69394914D01*
X158796285Y-69394914D01*
X158701047Y-69442533D01*
X158653428Y-69537771D01*
X158653428Y-69775866D01*
X158605809Y-69871104D01*
X158367714Y-70347295D02*
X159034380Y-70347295D01*
X158462952Y-70347295D02*
X158415333Y-70394914D01*
X158367714Y-70490152D01*
X158367714Y-70633009D01*
X158415333Y-70728247D01*
X158510571Y-70775866D01*
X159034380Y-70775866D01*
X158367714Y-71680628D02*
X159034380Y-71680628D01*
X158367714Y-71252057D02*
X158891523Y-71252057D01*
X158986761Y-71299676D01*
X159034380Y-71394914D01*
X159034380Y-71537771D01*
X158986761Y-71633009D01*
X158939142Y-71680628D01*
X159034380Y-72585390D02*
X158510571Y-72585390D01*
X158415333Y-72537771D01*
X158367714Y-72442533D01*
X158367714Y-72252057D01*
X158415333Y-72156819D01*
X158986761Y-72585390D02*
X159034380Y-72490152D01*
X159034380Y-72252057D01*
X158986761Y-72156819D01*
X158891523Y-72109200D01*
X158796285Y-72109200D01*
X158701047Y-72156819D01*
X158653428Y-72252057D01*
X158653428Y-72490152D01*
X158605809Y-72585390D01*
X159034380Y-73061580D02*
X158367714Y-73061580D01*
X158558190Y-73061580D02*
X158462952Y-73109200D01*
X158415333Y-73156819D01*
X158367714Y-73252057D01*
X158367714Y-73347295D01*
X158367714Y-73585390D02*
X159034380Y-73823485D01*
X158367714Y-74061580D02*
X159034380Y-73823485D01*
X159272476Y-73728247D01*
X159320095Y-73680628D01*
X159367714Y-73585390D01*
X158129619Y-75156819D02*
X158082000Y-75204438D01*
X158034380Y-75299676D01*
X158034380Y-75537771D01*
X158082000Y-75633009D01*
X158129619Y-75680628D01*
X158224857Y-75728247D01*
X158320095Y-75728247D01*
X158462952Y-75680628D01*
X159034380Y-75109200D01*
X159034380Y-75728247D01*
X158034380Y-76347295D02*
X158034380Y-76442533D01*
X158082000Y-76537771D01*
X158129619Y-76585390D01*
X158224857Y-76633009D01*
X158415333Y-76680628D01*
X158653428Y-76680628D01*
X158843904Y-76633009D01*
X158939142Y-76585390D01*
X158986761Y-76537771D01*
X159034380Y-76442533D01*
X159034380Y-76347295D01*
X158986761Y-76252057D01*
X158939142Y-76204438D01*
X158843904Y-76156819D01*
X158653428Y-76109200D01*
X158415333Y-76109200D01*
X158224857Y-76156819D01*
X158129619Y-76204438D01*
X158082000Y-76252057D01*
X158034380Y-76347295D01*
X158129619Y-77061580D02*
X158082000Y-77109200D01*
X158034380Y-77204438D01*
X158034380Y-77442533D01*
X158082000Y-77537771D01*
X158129619Y-77585390D01*
X158224857Y-77633009D01*
X158320095Y-77633009D01*
X158462952Y-77585390D01*
X159034380Y-77013961D01*
X159034380Y-77633009D01*
X158034380Y-78537771D02*
X158034380Y-78061580D01*
X158510571Y-78013961D01*
X158462952Y-78061580D01*
X158415333Y-78156819D01*
X158415333Y-78394914D01*
X158462952Y-78490152D01*
X158510571Y-78537771D01*
X158605809Y-78585390D01*
X158843904Y-78585390D01*
X158939142Y-78537771D01*
X158986761Y-78490152D01*
X159034380Y-78394914D01*
X159034380Y-78156819D01*
X158986761Y-78061580D01*
X158939142Y-78013961D01*
M02*
