M48
; DRILL file {KiCad 6.0.11+dfsg-1} date Thu 09 Jan 2025 09:40:12 AM PST
; FORMAT={-:-/ absolute / inch / decimal}
; #@! TF.CreationDate,2025-01-09T09:40:12-08:00
; #@! TF.GenerationSoftware,Kicad,Pcbnew,6.0.11+dfsg-1
; #@! TF.FileFunction,Plated,1,2,PTH
FMAT,2
INCH
; #@! TA.AperFunction,Plated,PTH,ViaDrill
T1C0.0157
; #@! TA.AperFunction,Plated,PTH,ComponentDrill
T2C0.0394
; #@! TA.AperFunction,Plated,PTH,ComponentDrill
T3C0.1260
%
G90
G05
T1
X6.045Y-2.195
X6.045Y-2.37
X6.045Y-2.545
X6.045Y-2.72
X6.045Y-2.895
X6.045Y-3.07
X6.045Y-3.245
X6.08Y-3.785
X6.21Y-3.58
X6.305Y-2.19
X6.395Y-3.74
X6.4Y-3.58
X6.4Y-3.675
X6.525Y-3.785
X6.55Y-2.195
X6.55Y-2.37
X6.55Y-2.545
X6.55Y-2.72
X6.55Y-2.895
X6.55Y-3.07
X6.55Y-3.245
T2
X6.1002Y-3.4002
X6.1002Y-3.5002
X6.2002Y-3.4002
X6.2002Y-3.5002
X6.3002Y-3.4002
X6.3002Y-3.5002
X6.4002Y-3.4002
X6.4002Y-3.5002
X6.5002Y-3.4002
X6.5002Y-3.5002
T3
X6.3Y-2.3673
T2
G00X6.0756Y-3.8755
M15
G01X6.0756Y-3.9345
M16
G05
G00X6.5244Y-3.8755
M15
G01X6.5244Y-3.9345
M16
G05
T0
M30
