%TF.GenerationSoftware,KiCad,Pcbnew,6.0.11+dfsg-1*%
%TF.CreationDate,2025-01-09T09:17:59-08:00*%
%TF.ProjectId,eUSB,65555342-2e6b-4696-9361-645f70636258,rev?*%
%TF.SameCoordinates,Original*%
%TF.FileFunction,Copper,L1,Top*%
%TF.FilePolarity,Positive*%
%FSLAX46Y46*%
G04 Gerber Fmt 4.6, Leading zero omitted, Abs format (unit mm)*
G04 Created by KiCad (PCBNEW 6.0.11+dfsg-1) date 2025-01-09 09:17:59*
%MOMM*%
%LPD*%
G01*
G04 APERTURE LIST*
G04 Aperture macros list*
%AMRoundRect*
0 Rectangle with rounded corners*
0 $1 Rounding radius*
0 $2 $3 $4 $5 $6 $7 $8 $9 X,Y pos of 4 corners*
0 Add a 4 corners polygon primitive as box body*
4,1,4,$2,$3,$4,$5,$6,$7,$8,$9,$2,$3,0*
0 Add four circle primitives for the rounded corners*
1,1,$1+$1,$2,$3*
1,1,$1+$1,$4,$5*
1,1,$1+$1,$6,$7*
1,1,$1+$1,$8,$9*
0 Add four rect primitives between the rounded corners*
20,1,$1+$1,$2,$3,$4,$5,0*
20,1,$1+$1,$4,$5,$6,$7,0*
20,1,$1+$1,$6,$7,$8,$9,0*
20,1,$1+$1,$8,$9,$2,$3,0*%
G04 Aperture macros list end*
%TA.AperFunction,SMDPad,CuDef*%
%ADD10RoundRect,0.200000X0.275000X-0.200000X0.275000X0.200000X-0.275000X0.200000X-0.275000X-0.200000X0*%
%TD*%
%TA.AperFunction,ComponentPad*%
%ADD11C,5.700000*%
%TD*%
%TA.AperFunction,SMDPad,CuDef*%
%ADD12RoundRect,0.243750X0.456250X-0.243750X0.456250X0.243750X-0.456250X0.243750X-0.456250X-0.243750X0*%
%TD*%
%TA.AperFunction,ComponentPad*%
%ADD13O,1.700000X1.700000*%
%TD*%
%TA.AperFunction,ComponentPad*%
%ADD14R,1.700000X1.700000*%
%TD*%
%TA.AperFunction,SMDPad,CuDef*%
%ADD15R,1.200000X2.000000*%
%TD*%
%TA.AperFunction,ComponentPad*%
%ADD16O,1.600000X3.200000*%
%TD*%
%TA.AperFunction,ViaPad*%
%ADD17C,0.800000*%
%TD*%
%TA.AperFunction,Conductor*%
%ADD18C,1.000000*%
%TD*%
%TA.AperFunction,Conductor*%
%ADD19C,0.200000*%
%TD*%
%TA.AperFunction,Conductor*%
%ADD20C,0.400000*%
%TD*%
G04 APERTURE END LIST*
D10*
%TO.P,R2,1*%
%TO.N,Net-(D2-Pad1)*%
X156210000Y-93789000D03*
%TO.P,R2,2*%
%TO.N,GND*%
X156210000Y-92139000D03*
%TD*%
%TO.P,R1,1*%
%TO.N,Net-(D1-Pad1)*%
X163957000Y-93789000D03*
%TO.P,R1,2*%
%TO.N,GND*%
X163957000Y-92139000D03*
%TD*%
D11*
%TO.P,H1,1,1*%
%TO.N,GND*%
X160020000Y-60130000D03*
%TD*%
D12*
%TO.P,D2,1,K*%
%TO.N,Net-(D2-Pad1)*%
X154305000Y-93774500D03*
%TO.P,D2,2,A*%
%TO.N,+5V*%
X154305000Y-91899500D03*
%TD*%
%TO.P,D1,1,K*%
%TO.N,Net-(D1-Pad1)*%
X165862000Y-93774500D03*
%TO.P,D1,2,A*%
%TO.N,Net-(D1-Pad2)*%
X165862000Y-91899500D03*
%TD*%
D13*
%TO.P,J1,1,Pin_1*%
%TO.N,+5V*%
X154945000Y-88905000D03*
%TO.P,J1,2,Pin_2*%
%TO.N,unconnected-(J1-Pad2)*%
X154945000Y-86365000D03*
%TO.P,J1,3,Pin_3*%
%TO.N,/D-*%
X157485000Y-88905000D03*
%TO.P,J1,4,Pin_4*%
%TO.N,unconnected-(J1-Pad4)*%
X157485000Y-86365000D03*
%TO.P,J1,5,Pin_5*%
%TO.N,/D+*%
X160025000Y-88905000D03*
%TO.P,J1,6,Pin_6*%
%TO.N,unconnected-(J1-Pad6)*%
X160025000Y-86365000D03*
%TO.P,J1,7,Pin_7*%
%TO.N,GND*%
X162565000Y-88905000D03*
%TO.P,J1,8,Pin_8*%
%TO.N,unconnected-(J1-Pad8)*%
X162565000Y-86365000D03*
D14*
%TO.P,J1,9,Pin_9*%
%TO.N,/KEY*%
X165105000Y-88905000D03*
D13*
%TO.P,J1,10,Pin_10*%
%TO.N,Net-(D1-Pad2)*%
X165105000Y-86365000D03*
%TD*%
D15*
%TO.P,J2,1,VCC*%
%TO.N,+5V*%
X163520000Y-96587000D03*
%TO.P,J2,2,D-*%
%TO.N,/D-*%
X161020000Y-96587000D03*
%TO.P,J2,3,D+*%
%TO.N,/D+*%
X159020000Y-96587000D03*
%TO.P,J2,4,GND*%
%TO.N,GND*%
X156520000Y-96587000D03*
D16*
%TO.P,J2,S1,SHIELD*%
X154320000Y-99187000D03*
%TO.P,J2,S2,SHIELD*%
X165720000Y-99187000D03*
%TD*%
D17*
%TO.N,GND*%
X160147000Y-55626000D03*
X153543000Y-55753000D03*
X153543000Y-69088000D03*
X153543000Y-82423000D03*
X153543000Y-60198000D03*
X153543000Y-73533000D03*
X166370000Y-73533000D03*
X166370000Y-55753000D03*
X153543000Y-64643000D03*
X162560000Y-93345000D03*
X157734000Y-90932000D03*
X166370000Y-69088000D03*
X165735000Y-96139000D03*
X166370000Y-64643000D03*
X166370000Y-77978000D03*
X154432000Y-96139000D03*
X166370000Y-82423000D03*
X162560000Y-90932000D03*
X166370000Y-60198000D03*
X153543000Y-77978000D03*
%TO.N,+5V*%
X162433000Y-94996000D03*
%TD*%
D18*
%TO.N,GND*%
X156520000Y-96587000D02*
X156520000Y-96987000D01*
D19*
%TO.N,/D+*%
X158970000Y-89960000D02*
X158970000Y-96537000D01*
X158970000Y-96537000D02*
X159020000Y-96587000D01*
X160025000Y-88905000D02*
X158970000Y-89960000D01*
%TO.N,/D-*%
X161415000Y-96192000D02*
X161020000Y-96587000D01*
X160653000Y-87755000D02*
X158635000Y-87755000D01*
X158635000Y-87755000D02*
X157485000Y-88905000D01*
X161415000Y-88517000D02*
X161415000Y-96192000D01*
X160653000Y-87755000D02*
X161415000Y-88517000D01*
D18*
%TO.N,+5V*%
X154305000Y-89545000D02*
X154945000Y-88905000D01*
X163520000Y-96587000D02*
X163520000Y-96083000D01*
X154305000Y-91772500D02*
X154305000Y-89545000D01*
X163520000Y-96083000D02*
X162433000Y-94996000D01*
D20*
%TO.N,Net-(D2-Pad1)*%
X156195500Y-93774500D02*
X156210000Y-93789000D01*
X154305000Y-93774500D02*
X156195500Y-93774500D01*
%TO.N,Net-(D1-Pad1)*%
X163830000Y-93749500D02*
X165862000Y-93749500D01*
%TO.N,Net-(D1-Pad2)*%
X165862000Y-91924500D02*
X166355000Y-91431500D01*
X166355000Y-87615000D02*
X165105000Y-86365000D01*
X166355000Y-91431500D02*
X166355000Y-87615000D01*
%TD*%
%TA.AperFunction,Conductor*%
%TO.N,GND*%
G36*
X165705018Y-54778841D02*
G01*
X165719851Y-54781151D01*
X165719855Y-54781151D01*
X165728724Y-54782532D01*
X165743981Y-54780537D01*
X165769301Y-54779794D01*
X165942834Y-54792206D01*
X165960617Y-54794763D01*
X166155412Y-54837138D01*
X166172655Y-54842202D01*
X166172769Y-54842244D01*
X166359430Y-54911866D01*
X166375776Y-54919330D01*
X166426619Y-54947093D01*
X166550746Y-55014873D01*
X166565867Y-55024591D01*
X166725457Y-55144061D01*
X166739033Y-55155825D01*
X166879998Y-55296793D01*
X166891759Y-55310366D01*
X167004108Y-55460450D01*
X167011225Y-55469957D01*
X167020941Y-55485075D01*
X167116484Y-55660055D01*
X167123946Y-55676399D01*
X167193605Y-55863172D01*
X167198670Y-55880421D01*
X167241041Y-56075212D01*
X167243599Y-56093006D01*
X167255512Y-56259612D01*
X167254800Y-56276711D01*
X167254801Y-56276711D01*
X167254691Y-56285681D01*
X167253309Y-56294555D01*
X167254473Y-56303458D01*
X167254473Y-56303459D01*
X167257437Y-56326130D01*
X167258500Y-56342464D01*
X167258500Y-87309967D01*
X167238498Y-87378088D01*
X167184842Y-87424581D01*
X167114568Y-87434685D01*
X167049988Y-87405191D01*
X167017127Y-87360614D01*
X167013752Y-87352925D01*
X167012550Y-87350187D01*
X167010065Y-87344096D01*
X167009365Y-87342242D01*
X166987487Y-87284344D01*
X166983183Y-87278081D01*
X166981946Y-87275715D01*
X166973701Y-87260903D01*
X166972368Y-87258649D01*
X166969315Y-87251695D01*
X166930413Y-87200998D01*
X166926541Y-87195668D01*
X166894661Y-87149280D01*
X166894656Y-87149275D01*
X166890357Y-87143019D01*
X166843829Y-87101564D01*
X166838554Y-87096584D01*
X166476383Y-86734413D01*
X166442357Y-86672101D01*
X166440556Y-86628871D01*
X166466092Y-86434908D01*
X166466529Y-86431590D01*
X166468156Y-86365000D01*
X166449852Y-86142361D01*
X166395431Y-85925702D01*
X166306354Y-85720840D01*
X166185014Y-85533277D01*
X166034670Y-85368051D01*
X166030619Y-85364852D01*
X166030615Y-85364848D01*
X165863414Y-85232800D01*
X165863410Y-85232798D01*
X165859359Y-85229598D01*
X165663789Y-85121638D01*
X165658920Y-85119914D01*
X165658916Y-85119912D01*
X165458087Y-85048795D01*
X165458083Y-85048794D01*
X165453212Y-85047069D01*
X165448119Y-85046162D01*
X165448116Y-85046161D01*
X165238373Y-85008800D01*
X165238367Y-85008799D01*
X165233284Y-85007894D01*
X165159452Y-85006992D01*
X165015081Y-85005228D01*
X165015079Y-85005228D01*
X165009911Y-85005165D01*
X164789091Y-85038955D01*
X164576756Y-85108357D01*
X164378607Y-85211507D01*
X164374474Y-85214610D01*
X164374471Y-85214612D01*
X164350247Y-85232800D01*
X164199965Y-85345635D01*
X164045629Y-85507138D01*
X163938201Y-85664621D01*
X163883293Y-85709621D01*
X163812768Y-85717792D01*
X163749021Y-85686538D01*
X163728324Y-85662054D01*
X163647822Y-85537617D01*
X163647820Y-85537614D01*
X163645014Y-85533277D01*
X163494670Y-85368051D01*
X163490619Y-85364852D01*
X163490615Y-85364848D01*
X163323414Y-85232800D01*
X163323410Y-85232798D01*
X163319359Y-85229598D01*
X163123789Y-85121638D01*
X163118920Y-85119914D01*
X163118916Y-85119912D01*
X162918087Y-85048795D01*
X162918083Y-85048794D01*
X162913212Y-85047069D01*
X162908119Y-85046162D01*
X162908116Y-85046161D01*
X162698373Y-85008800D01*
X162698367Y-85008799D01*
X162693284Y-85007894D01*
X162619452Y-85006992D01*
X162475081Y-85005228D01*
X162475079Y-85005228D01*
X162469911Y-85005165D01*
X162249091Y-85038955D01*
X162036756Y-85108357D01*
X161838607Y-85211507D01*
X161834474Y-85214610D01*
X161834471Y-85214612D01*
X161810247Y-85232800D01*
X161659965Y-85345635D01*
X161505629Y-85507138D01*
X161398201Y-85664621D01*
X161343293Y-85709621D01*
X161272768Y-85717792D01*
X161209021Y-85686538D01*
X161188324Y-85662054D01*
X161107822Y-85537617D01*
X161107820Y-85537614D01*
X161105014Y-85533277D01*
X160954670Y-85368051D01*
X160950619Y-85364852D01*
X160950615Y-85364848D01*
X160783414Y-85232800D01*
X160783410Y-85232798D01*
X160779359Y-85229598D01*
X160583789Y-85121638D01*
X160578920Y-85119914D01*
X160578916Y-85119912D01*
X160378087Y-85048795D01*
X160378083Y-85048794D01*
X160373212Y-85047069D01*
X160368119Y-85046162D01*
X160368116Y-85046161D01*
X160158373Y-85008800D01*
X160158367Y-85008799D01*
X160153284Y-85007894D01*
X160079452Y-85006992D01*
X159935081Y-85005228D01*
X159935079Y-85005228D01*
X159929911Y-85005165D01*
X159709091Y-85038955D01*
X159496756Y-85108357D01*
X159298607Y-85211507D01*
X159294474Y-85214610D01*
X159294471Y-85214612D01*
X159270247Y-85232800D01*
X159119965Y-85345635D01*
X158965629Y-85507138D01*
X158858201Y-85664621D01*
X158803293Y-85709621D01*
X158732768Y-85717792D01*
X158669021Y-85686538D01*
X158648324Y-85662054D01*
X158567822Y-85537617D01*
X158567820Y-85537614D01*
X158565014Y-85533277D01*
X158414670Y-85368051D01*
X158410619Y-85364852D01*
X158410615Y-85364848D01*
X158243414Y-85232800D01*
X158243410Y-85232798D01*
X158239359Y-85229598D01*
X158043789Y-85121638D01*
X158038920Y-85119914D01*
X158038916Y-85119912D01*
X157838087Y-85048795D01*
X157838083Y-85048794D01*
X157833212Y-85047069D01*
X157828119Y-85046162D01*
X157828116Y-85046161D01*
X157618373Y-85008800D01*
X157618367Y-85008799D01*
X157613284Y-85007894D01*
X157539452Y-85006992D01*
X157395081Y-85005228D01*
X157395079Y-85005228D01*
X157389911Y-85005165D01*
X157169091Y-85038955D01*
X156956756Y-85108357D01*
X156758607Y-85211507D01*
X156754474Y-85214610D01*
X156754471Y-85214612D01*
X156730247Y-85232800D01*
X156579965Y-85345635D01*
X156425629Y-85507138D01*
X156318201Y-85664621D01*
X156263293Y-85709621D01*
X156192768Y-85717792D01*
X156129021Y-85686538D01*
X156108324Y-85662054D01*
X156027822Y-85537617D01*
X156027820Y-85537614D01*
X156025014Y-85533277D01*
X155874670Y-85368051D01*
X155870619Y-85364852D01*
X155870615Y-85364848D01*
X155703414Y-85232800D01*
X155703410Y-85232798D01*
X155699359Y-85229598D01*
X155503789Y-85121638D01*
X155498920Y-85119914D01*
X155498916Y-85119912D01*
X155298087Y-85048795D01*
X155298083Y-85048794D01*
X155293212Y-85047069D01*
X155288119Y-85046162D01*
X155288116Y-85046161D01*
X155078373Y-85008800D01*
X155078367Y-85008799D01*
X155073284Y-85007894D01*
X154999452Y-85006992D01*
X154855081Y-85005228D01*
X154855079Y-85005228D01*
X154849911Y-85005165D01*
X154629091Y-85038955D01*
X154416756Y-85108357D01*
X154218607Y-85211507D01*
X154214474Y-85214610D01*
X154214471Y-85214612D01*
X154190247Y-85232800D01*
X154039965Y-85345635D01*
X153885629Y-85507138D01*
X153759743Y-85691680D01*
X153665688Y-85894305D01*
X153605989Y-86109570D01*
X153582251Y-86331695D01*
X153582548Y-86336848D01*
X153582548Y-86336851D01*
X153588011Y-86431590D01*
X153595110Y-86554715D01*
X153596247Y-86559761D01*
X153596248Y-86559767D01*
X153611822Y-86628871D01*
X153644222Y-86772639D01*
X153728266Y-86979616D01*
X153779942Y-87063944D01*
X153842291Y-87165688D01*
X153844987Y-87170088D01*
X153991250Y-87338938D01*
X154163126Y-87481632D01*
X154214176Y-87511463D01*
X154236445Y-87524476D01*
X154285169Y-87576114D01*
X154298240Y-87645897D01*
X154271509Y-87711669D01*
X154231055Y-87745027D01*
X154218607Y-87751507D01*
X154214474Y-87754610D01*
X154214471Y-87754612D01*
X154084740Y-87852017D01*
X154039965Y-87885635D01*
X153885629Y-88047138D01*
X153759743Y-88231680D01*
X153665688Y-88434305D01*
X153605989Y-88649570D01*
X153605440Y-88654705D01*
X153605440Y-88654706D01*
X153590561Y-88793930D01*
X153563433Y-88859539D01*
X153558765Y-88865001D01*
X153556691Y-88867075D01*
X153529358Y-88900349D01*
X153528696Y-88901147D01*
X153468846Y-88972474D01*
X153466278Y-88977144D01*
X153462897Y-88981261D01*
X153431860Y-89039145D01*
X153419023Y-89063086D01*
X153418394Y-89064245D01*
X153376538Y-89140381D01*
X153376535Y-89140389D01*
X153373567Y-89145787D01*
X153371955Y-89150869D01*
X153369438Y-89155563D01*
X153342238Y-89244531D01*
X153341918Y-89245559D01*
X153313765Y-89334306D01*
X153313171Y-89339602D01*
X153311613Y-89344698D01*
X153305304Y-89406811D01*
X153302218Y-89437187D01*
X153302089Y-89438393D01*
X153296500Y-89488227D01*
X153296500Y-89491754D01*
X153296445Y-89492739D01*
X153295998Y-89498419D01*
X153291626Y-89541462D01*
X153293838Y-89564857D01*
X153295941Y-89587109D01*
X153296500Y-89598967D01*
X153296500Y-91092030D01*
X153276498Y-91160151D01*
X153259672Y-91181049D01*
X153254383Y-91186347D01*
X153162339Y-91335671D01*
X153107115Y-91502165D01*
X153096500Y-91605769D01*
X153096501Y-92193230D01*
X153107384Y-92298129D01*
X153109563Y-92304660D01*
X153109564Y-92304665D01*
X153143844Y-92407414D01*
X153162898Y-92464526D01*
X153255203Y-92613689D01*
X153379347Y-92737617D01*
X153382270Y-92739419D01*
X153422408Y-92796029D01*
X153425642Y-92866952D01*
X153390018Y-92928364D01*
X153383622Y-92933916D01*
X153378311Y-92937203D01*
X153254383Y-93061347D01*
X153162339Y-93210671D01*
X153107115Y-93377165D01*
X153096500Y-93480769D01*
X153096501Y-94068230D01*
X153107384Y-94173129D01*
X153109563Y-94179660D01*
X153109564Y-94179665D01*
X153129829Y-94240405D01*
X153162898Y-94339526D01*
X153255203Y-94488689D01*
X153379347Y-94612617D01*
X153528671Y-94704661D01*
X153535619Y-94706966D01*
X153535620Y-94706966D01*
X153688634Y-94757719D01*
X153688636Y-94757719D01*
X153695165Y-94759885D01*
X153798769Y-94770500D01*
X154301096Y-94770500D01*
X154811230Y-94770499D01*
X154916129Y-94759616D01*
X154922660Y-94757437D01*
X154922665Y-94757436D01*
X155075578Y-94706420D01*
X155082526Y-94704102D01*
X155231689Y-94611797D01*
X155304497Y-94538862D01*
X155366779Y-94504783D01*
X155437600Y-94509786D01*
X155482765Y-94538785D01*
X155494619Y-94550639D01*
X155641301Y-94639472D01*
X155648548Y-94641743D01*
X155648550Y-94641744D01*
X155714836Y-94662517D01*
X155804938Y-94690753D01*
X155878365Y-94697500D01*
X155881263Y-94697500D01*
X156210860Y-94697499D01*
X156541634Y-94697499D01*
X156544492Y-94697236D01*
X156544501Y-94697236D01*
X156580004Y-94693974D01*
X156615062Y-94690753D01*
X156621447Y-94688752D01*
X156771450Y-94641744D01*
X156771452Y-94641743D01*
X156778699Y-94639472D01*
X156925381Y-94550639D01*
X157046639Y-94429381D01*
X157135472Y-94282699D01*
X157186753Y-94119062D01*
X157193500Y-94045635D01*
X157193499Y-93532366D01*
X157193234Y-93529474D01*
X157187364Y-93465592D01*
X157186753Y-93458938D01*
X157135472Y-93295301D01*
X157046639Y-93148619D01*
X156950761Y-93052741D01*
X156916735Y-92990429D01*
X156921800Y-92919614D01*
X156950761Y-92874551D01*
X157040869Y-92784443D01*
X157050176Y-92772574D01*
X157131079Y-92638988D01*
X157137285Y-92625243D01*
X157184256Y-92475356D01*
X157186869Y-92462306D01*
X157191913Y-92407414D01*
X157188525Y-92395876D01*
X157187135Y-92394671D01*
X157179452Y-92393000D01*
X156082000Y-92393000D01*
X156013879Y-92372998D01*
X155967386Y-92319342D01*
X155956000Y-92267000D01*
X155956000Y-91866885D01*
X156464000Y-91866885D01*
X156468475Y-91882124D01*
X156469865Y-91883329D01*
X156477548Y-91885000D01*
X157174884Y-91885000D01*
X157190123Y-91880525D01*
X157191328Y-91879135D01*
X157192291Y-91874706D01*
X157186868Y-91815685D01*
X157184257Y-91802649D01*
X157137285Y-91652757D01*
X157131079Y-91639012D01*
X157050176Y-91505426D01*
X157040869Y-91493557D01*
X156930443Y-91383131D01*
X156918574Y-91373824D01*
X156784988Y-91292921D01*
X156771243Y-91286715D01*
X156621356Y-91239744D01*
X156608306Y-91237131D01*
X156544479Y-91231266D01*
X156538691Y-91231000D01*
X156482115Y-91231000D01*
X156466876Y-91235475D01*
X156465671Y-91236865D01*
X156464000Y-91244548D01*
X156464000Y-91866885D01*
X155956000Y-91866885D01*
X155956000Y-91249116D01*
X155951525Y-91233877D01*
X155950135Y-91232672D01*
X155942452Y-91231001D01*
X155881295Y-91231001D01*
X155875546Y-91231264D01*
X155811685Y-91237132D01*
X155798649Y-91239743D01*
X155648757Y-91286715D01*
X155635013Y-91292921D01*
X155586370Y-91322380D01*
X155517740Y-91340559D01*
X155450177Y-91318749D01*
X155413954Y-91280907D01*
X155358651Y-91191539D01*
X155354797Y-91185311D01*
X155349615Y-91180138D01*
X155345068Y-91174401D01*
X155346325Y-91173404D01*
X155316404Y-91118728D01*
X155313500Y-91091831D01*
X155313500Y-90306588D01*
X155333502Y-90238467D01*
X155387158Y-90191974D01*
X155403292Y-90185902D01*
X155442384Y-90174174D01*
X155642994Y-90075896D01*
X155824860Y-89946173D01*
X155983096Y-89788489D01*
X156113453Y-89607077D01*
X156114776Y-89608028D01*
X156161645Y-89564857D01*
X156231580Y-89552625D01*
X156297026Y-89580144D01*
X156324875Y-89611994D01*
X156384987Y-89710088D01*
X156531250Y-89878938D01*
X156703126Y-90021632D01*
X156896000Y-90134338D01*
X157104692Y-90214030D01*
X157109760Y-90215061D01*
X157109763Y-90215062D01*
X157183486Y-90230061D01*
X157323597Y-90258567D01*
X157328772Y-90258757D01*
X157328774Y-90258757D01*
X157541673Y-90266564D01*
X157541677Y-90266564D01*
X157546837Y-90266753D01*
X157551957Y-90266097D01*
X157551959Y-90266097D01*
X157763288Y-90239025D01*
X157763289Y-90239025D01*
X157768416Y-90238368D01*
X157773366Y-90236883D01*
X157977429Y-90175661D01*
X157977434Y-90175659D01*
X157982384Y-90174174D01*
X158180070Y-90077329D01*
X158250041Y-90065322D01*
X158315399Y-90093052D01*
X158355389Y-90151715D01*
X158361500Y-90190480D01*
X158361500Y-94978502D01*
X158341498Y-95046623D01*
X158287842Y-95093116D01*
X158279730Y-95096484D01*
X158189050Y-95130479D01*
X158173295Y-95136385D01*
X158056739Y-95223739D01*
X157969385Y-95340295D01*
X157918255Y-95476684D01*
X157911500Y-95538866D01*
X157911500Y-97635134D01*
X157918255Y-97697316D01*
X157969385Y-97833705D01*
X157974771Y-97840891D01*
X158048600Y-97939401D01*
X158073448Y-98005907D01*
X158058395Y-98075290D01*
X158008221Y-98125520D01*
X157933729Y-98140181D01*
X157882723Y-98134460D01*
X157829587Y-98128500D01*
X157717763Y-98128500D01*
X157714710Y-98128799D01*
X157714697Y-98128800D01*
X157604463Y-98139609D01*
X157534716Y-98126349D01*
X157483209Y-98077487D01*
X157466296Y-98008534D01*
X157491342Y-97938645D01*
X157564786Y-97840649D01*
X157573324Y-97825054D01*
X157618478Y-97704606D01*
X157622105Y-97689351D01*
X157627631Y-97638486D01*
X157628000Y-97631672D01*
X157628000Y-96859115D01*
X157623525Y-96843876D01*
X157622135Y-96842671D01*
X157614452Y-96841000D01*
X156792115Y-96841000D01*
X156776876Y-96845475D01*
X156775671Y-96846865D01*
X156774000Y-96854548D01*
X156774000Y-98076884D01*
X156778475Y-98092123D01*
X156779865Y-98093328D01*
X156787548Y-98094999D01*
X157080240Y-98094999D01*
X157148361Y-98115001D01*
X157194854Y-98168657D01*
X157204958Y-98238931D01*
X157175464Y-98303511D01*
X157159876Y-98318642D01*
X157025311Y-98428390D01*
X157025308Y-98428393D01*
X157020536Y-98432285D01*
X156888217Y-98592230D01*
X156885288Y-98597647D01*
X156885286Y-98597650D01*
X156792416Y-98769410D01*
X156792414Y-98769415D01*
X156789486Y-98774830D01*
X156728102Y-98973129D01*
X156727458Y-98979254D01*
X156727458Y-98979255D01*
X156725926Y-98993836D01*
X156706404Y-99179575D01*
X156725218Y-99386303D01*
X156726956Y-99392209D01*
X156726957Y-99392213D01*
X156770473Y-99540068D01*
X156783827Y-99585440D01*
X156879999Y-99769400D01*
X157010071Y-99931177D01*
X157014788Y-99935135D01*
X157014790Y-99935137D01*
X157118681Y-100022312D01*
X157169089Y-100064609D01*
X157174481Y-100067573D01*
X157174485Y-100067576D01*
X157345598Y-100161646D01*
X157350995Y-100164613D01*
X157548861Y-100227379D01*
X157554978Y-100228065D01*
X157554982Y-100228066D01*
X157631598Y-100236659D01*
X157710413Y-100245500D01*
X157822237Y-100245500D01*
X157825293Y-100245200D01*
X157825300Y-100245200D01*
X157970466Y-100230966D01*
X157970469Y-100230965D01*
X157976592Y-100230365D01*
X158125506Y-100185406D01*
X158169407Y-100172152D01*
X158169410Y-100172151D01*
X158175315Y-100170368D01*
X158182635Y-100166476D01*
X158353153Y-100075809D01*
X158353155Y-100075808D01*
X158358599Y-100072913D01*
X158418471Y-100024083D01*
X158514689Y-99945610D01*
X158514692Y-99945607D01*
X158519464Y-99941715D01*
X158651783Y-99781770D01*
X158655876Y-99774201D01*
X158747584Y-99604590D01*
X158747586Y-99604585D01*
X158750514Y-99599170D01*
X158811898Y-99400871D01*
X158813764Y-99383121D01*
X158832952Y-99200554D01*
X158832952Y-99200552D01*
X158833596Y-99194425D01*
X158814782Y-98987697D01*
X158812298Y-98979255D01*
X158757912Y-98794469D01*
X158756173Y-98788560D01*
X158660001Y-98604600D01*
X158529929Y-98442823D01*
X158517371Y-98432285D01*
X158381197Y-98318022D01*
X158341870Y-98258912D01*
X158340744Y-98187924D01*
X158378175Y-98127597D01*
X158442280Y-98097083D01*
X158462188Y-98095500D01*
X159668134Y-98095500D01*
X159730316Y-98088745D01*
X159866705Y-98037615D01*
X159909013Y-98005907D01*
X159944435Y-97979360D01*
X160010942Y-97954512D01*
X160080324Y-97969565D01*
X160095565Y-97979360D01*
X160130987Y-98005907D01*
X160173295Y-98037615D01*
X160309684Y-98088745D01*
X160371866Y-98095500D01*
X161579626Y-98095500D01*
X161647747Y-98115502D01*
X161694240Y-98169158D01*
X161704344Y-98239432D01*
X161674850Y-98304012D01*
X161659262Y-98319143D01*
X161525311Y-98428390D01*
X161525308Y-98428393D01*
X161520536Y-98432285D01*
X161388217Y-98592230D01*
X161385288Y-98597647D01*
X161385286Y-98597650D01*
X161292416Y-98769410D01*
X161292414Y-98769415D01*
X161289486Y-98774830D01*
X161228102Y-98973129D01*
X161227458Y-98979254D01*
X161227458Y-98979255D01*
X161225926Y-98993836D01*
X161206404Y-99179575D01*
X161225218Y-99386303D01*
X161226956Y-99392209D01*
X161226957Y-99392213D01*
X161270473Y-99540068D01*
X161283827Y-99585440D01*
X161379999Y-99769400D01*
X161510071Y-99931177D01*
X161514788Y-99935135D01*
X161514790Y-99935137D01*
X161618681Y-100022312D01*
X161669089Y-100064609D01*
X161674481Y-100067573D01*
X161674485Y-100067576D01*
X161845598Y-100161646D01*
X161850995Y-100164613D01*
X162048861Y-100227379D01*
X162054978Y-100228065D01*
X162054982Y-100228066D01*
X162131598Y-100236659D01*
X162210413Y-100245500D01*
X162322237Y-100245500D01*
X162325293Y-100245200D01*
X162325300Y-100245200D01*
X162470466Y-100230966D01*
X162470469Y-100230965D01*
X162476592Y-100230365D01*
X162625506Y-100185406D01*
X162669407Y-100172152D01*
X162669410Y-100172151D01*
X162675315Y-100170368D01*
X162682635Y-100166476D01*
X162853153Y-100075809D01*
X162853155Y-100075808D01*
X162858599Y-100072913D01*
X162918471Y-100024083D01*
X163014689Y-99945610D01*
X163014692Y-99945607D01*
X163019464Y-99941715D01*
X163151783Y-99781770D01*
X163155876Y-99774201D01*
X163247584Y-99604590D01*
X163247586Y-99604585D01*
X163250514Y-99599170D01*
X163311898Y-99400871D01*
X163313764Y-99383121D01*
X163332952Y-99200554D01*
X163332952Y-99200552D01*
X163333596Y-99194425D01*
X163314782Y-98987697D01*
X163312298Y-98979255D01*
X163257912Y-98794469D01*
X163256173Y-98788560D01*
X163160001Y-98604600D01*
X163029929Y-98442823D01*
X163017371Y-98432285D01*
X162881197Y-98318022D01*
X162841870Y-98258912D01*
X162840744Y-98187924D01*
X162878175Y-98127597D01*
X162942280Y-98097083D01*
X162962188Y-98095500D01*
X164168134Y-98095500D01*
X164230316Y-98088745D01*
X164237714Y-98085972D01*
X164237721Y-98085970D01*
X164252803Y-98080316D01*
X164323610Y-98075133D01*
X164385978Y-98109055D01*
X164420107Y-98171311D01*
X164422552Y-98209279D01*
X164412238Y-98327170D01*
X164412000Y-98332635D01*
X164412000Y-98914885D01*
X164416475Y-98930124D01*
X164417865Y-98931329D01*
X164425548Y-98933000D01*
X165447885Y-98933000D01*
X165463124Y-98928525D01*
X165464329Y-98927135D01*
X165466000Y-98919452D01*
X165466000Y-97119033D01*
X165462027Y-97105502D01*
X165453478Y-97104273D01*
X165276239Y-97151764D01*
X165265947Y-97155510D01*
X165068489Y-97247586D01*
X165058993Y-97253069D01*
X164880533Y-97378028D01*
X164872125Y-97385084D01*
X164843595Y-97413614D01*
X164781283Y-97447640D01*
X164710468Y-97442575D01*
X164653632Y-97400028D01*
X164628821Y-97333508D01*
X164628500Y-97324519D01*
X164628500Y-95538866D01*
X164621745Y-95476684D01*
X164570615Y-95340295D01*
X164483261Y-95223739D01*
X164366705Y-95136385D01*
X164230316Y-95085255D01*
X164168134Y-95078500D01*
X163993925Y-95078500D01*
X163925804Y-95058498D01*
X163904830Y-95041595D01*
X163775830Y-94912595D01*
X163741804Y-94850283D01*
X163746869Y-94779468D01*
X163789416Y-94722632D01*
X163855936Y-94697821D01*
X163864925Y-94697500D01*
X164280747Y-94697499D01*
X164288634Y-94697499D01*
X164291492Y-94697236D01*
X164291501Y-94697236D01*
X164327004Y-94693974D01*
X164362062Y-94690753D01*
X164368447Y-94688752D01*
X164518450Y-94641744D01*
X164518452Y-94641743D01*
X164525699Y-94639472D01*
X164672381Y-94550639D01*
X164684215Y-94538805D01*
X164746527Y-94504779D01*
X164817342Y-94509844D01*
X164862328Y-94538727D01*
X164874261Y-94550639D01*
X164936347Y-94612617D01*
X165085671Y-94704661D01*
X165092619Y-94706966D01*
X165092620Y-94706966D01*
X165245634Y-94757719D01*
X165245636Y-94757719D01*
X165252165Y-94759885D01*
X165355769Y-94770500D01*
X165858096Y-94770500D01*
X166368230Y-94770499D01*
X166473129Y-94759616D01*
X166479660Y-94757437D01*
X166479665Y-94757436D01*
X166632578Y-94706420D01*
X166639526Y-94704102D01*
X166788689Y-94611797D01*
X166912617Y-94487653D01*
X167004661Y-94338329D01*
X167012907Y-94313469D01*
X167053338Y-94255109D01*
X167118902Y-94227872D01*
X167188783Y-94240405D01*
X167240795Y-94288730D01*
X167258500Y-94353136D01*
X167258500Y-98117970D01*
X167238498Y-98186091D01*
X167184842Y-98232584D01*
X167114568Y-98242688D01*
X167049988Y-98213194D01*
X167010793Y-98150581D01*
X166955236Y-97943239D01*
X166951490Y-97932947D01*
X166859414Y-97735489D01*
X166853931Y-97725993D01*
X166728972Y-97547533D01*
X166721916Y-97539125D01*
X166567875Y-97385084D01*
X166559467Y-97378028D01*
X166381007Y-97253069D01*
X166371511Y-97247586D01*
X166174053Y-97155510D01*
X166163761Y-97151764D01*
X165991497Y-97105606D01*
X165977401Y-97105942D01*
X165974000Y-97113884D01*
X165974000Y-99315000D01*
X165953998Y-99383121D01*
X165900342Y-99429614D01*
X165848000Y-99441000D01*
X164430115Y-99441000D01*
X164414876Y-99445475D01*
X164413671Y-99446865D01*
X164412000Y-99454548D01*
X164412000Y-100041365D01*
X164412238Y-100046830D01*
X164426472Y-100209519D01*
X164428375Y-100220312D01*
X164484764Y-100430761D01*
X164488510Y-100441053D01*
X164580586Y-100638511D01*
X164586069Y-100648007D01*
X164711028Y-100826467D01*
X164718084Y-100834875D01*
X164872125Y-100988916D01*
X164880533Y-100995972D01*
X165061475Y-101122669D01*
X165105803Y-101178126D01*
X165113112Y-101248746D01*
X165081081Y-101312106D01*
X165019880Y-101348091D01*
X164989204Y-101351882D01*
X155050796Y-101351882D01*
X154982675Y-101331880D01*
X154936182Y-101278224D01*
X154926078Y-101207950D01*
X154955572Y-101143370D01*
X154978525Y-101122669D01*
X155159467Y-100995972D01*
X155167875Y-100988916D01*
X155321916Y-100834875D01*
X155328972Y-100826467D01*
X155453931Y-100648007D01*
X155459414Y-100638511D01*
X155551490Y-100441053D01*
X155555236Y-100430761D01*
X155611625Y-100220312D01*
X155613528Y-100209519D01*
X155627762Y-100046830D01*
X155628000Y-100041365D01*
X155628000Y-99459115D01*
X155623525Y-99443876D01*
X155622135Y-99442671D01*
X155614452Y-99441000D01*
X153030115Y-99441000D01*
X153014876Y-99445475D01*
X153013671Y-99446865D01*
X153012000Y-99454548D01*
X153012000Y-100041365D01*
X153012238Y-100046830D01*
X153026472Y-100209519D01*
X153028375Y-100220312D01*
X153084764Y-100430761D01*
X153088510Y-100441053D01*
X153180586Y-100638511D01*
X153186069Y-100648007D01*
X153311028Y-100826467D01*
X153318084Y-100834875D01*
X153472125Y-100988916D01*
X153480533Y-100995972D01*
X153661475Y-101122669D01*
X153705803Y-101178126D01*
X153713112Y-101248746D01*
X153681081Y-101312106D01*
X153619880Y-101348091D01*
X153589204Y-101351882D01*
X153079121Y-101351882D01*
X153059289Y-101350311D01*
X153045606Y-101348130D01*
X153045604Y-101348130D01*
X153036739Y-101346717D01*
X153027835Y-101347849D01*
X153018856Y-101347707D01*
X153018859Y-101347502D01*
X152997418Y-101347416D01*
X152949278Y-101340901D01*
X152917538Y-101332274D01*
X152857280Y-101307059D01*
X152828855Y-101290511D01*
X152803018Y-101270537D01*
X152777179Y-101250562D01*
X152754005Y-101227220D01*
X152714431Y-101175258D01*
X152698087Y-101146713D01*
X152697927Y-101146322D01*
X152673308Y-101086271D01*
X152664911Y-101054472D01*
X152659200Y-101009838D01*
X152658197Y-100991852D01*
X152658252Y-100988387D01*
X152659665Y-100979524D01*
X152658394Y-100969516D01*
X152655505Y-100946786D01*
X152654500Y-100930903D01*
X152654500Y-98914885D01*
X153012000Y-98914885D01*
X153016475Y-98930124D01*
X153017865Y-98931329D01*
X153025548Y-98933000D01*
X154047885Y-98933000D01*
X154063124Y-98928525D01*
X154064329Y-98927135D01*
X154066000Y-98919452D01*
X154066000Y-98914885D01*
X154574000Y-98914885D01*
X154578475Y-98930124D01*
X154579865Y-98931329D01*
X154587548Y-98933000D01*
X155609885Y-98933000D01*
X155625124Y-98928525D01*
X155626329Y-98927135D01*
X155628000Y-98919452D01*
X155628000Y-98332635D01*
X155627762Y-98327172D01*
X155617399Y-98208728D01*
X155631388Y-98139123D01*
X155680787Y-98088131D01*
X155749913Y-98071940D01*
X155787147Y-98079763D01*
X155802392Y-98085478D01*
X155817649Y-98089105D01*
X155868514Y-98094631D01*
X155875328Y-98095000D01*
X156247885Y-98095000D01*
X156263124Y-98090525D01*
X156264329Y-98089135D01*
X156266000Y-98081452D01*
X156266000Y-96859115D01*
X156261525Y-96843876D01*
X156260135Y-96842671D01*
X156252452Y-96841000D01*
X155430116Y-96841000D01*
X155414877Y-96845475D01*
X155413672Y-96846865D01*
X155412001Y-96854548D01*
X155412001Y-97325020D01*
X155391999Y-97393141D01*
X155338343Y-97439634D01*
X155268069Y-97449738D01*
X155203489Y-97420244D01*
X155196906Y-97414115D01*
X155167875Y-97385084D01*
X155159467Y-97378028D01*
X154981007Y-97253069D01*
X154971511Y-97247586D01*
X154774053Y-97155510D01*
X154763761Y-97151764D01*
X154591497Y-97105606D01*
X154577401Y-97105942D01*
X154574000Y-97113884D01*
X154574000Y-98914885D01*
X154066000Y-98914885D01*
X154066000Y-97119033D01*
X154062027Y-97105502D01*
X154053478Y-97104273D01*
X153876239Y-97151764D01*
X153865947Y-97155510D01*
X153668489Y-97247586D01*
X153658993Y-97253069D01*
X153480533Y-97378028D01*
X153472125Y-97385084D01*
X153318084Y-97539125D01*
X153311028Y-97547533D01*
X153186069Y-97725993D01*
X153180586Y-97735489D01*
X153088510Y-97932947D01*
X153084764Y-97943239D01*
X153028375Y-98153688D01*
X153026472Y-98164481D01*
X153012238Y-98327170D01*
X153012000Y-98332635D01*
X153012000Y-98914885D01*
X152654500Y-98914885D01*
X152654500Y-96314885D01*
X155412000Y-96314885D01*
X155416475Y-96330124D01*
X155417865Y-96331329D01*
X155425548Y-96333000D01*
X156247885Y-96333000D01*
X156263124Y-96328525D01*
X156264329Y-96327135D01*
X156266000Y-96319452D01*
X156266000Y-96314885D01*
X156774000Y-96314885D01*
X156778475Y-96330124D01*
X156779865Y-96331329D01*
X156787548Y-96333000D01*
X157609884Y-96333000D01*
X157625123Y-96328525D01*
X157626328Y-96327135D01*
X157627999Y-96319452D01*
X157627999Y-95542331D01*
X157627629Y-95535510D01*
X157622105Y-95484648D01*
X157618479Y-95469396D01*
X157573324Y-95348946D01*
X157564786Y-95333351D01*
X157488285Y-95231276D01*
X157475724Y-95218715D01*
X157373649Y-95142214D01*
X157358054Y-95133676D01*
X157237606Y-95088522D01*
X157222351Y-95084895D01*
X157171486Y-95079369D01*
X157164672Y-95079000D01*
X156792115Y-95079000D01*
X156776876Y-95083475D01*
X156775671Y-95084865D01*
X156774000Y-95092548D01*
X156774000Y-96314885D01*
X156266000Y-96314885D01*
X156266000Y-95097116D01*
X156261525Y-95081877D01*
X156260135Y-95080672D01*
X156252452Y-95079001D01*
X155875331Y-95079001D01*
X155868510Y-95079371D01*
X155817648Y-95084895D01*
X155802396Y-95088521D01*
X155681946Y-95133676D01*
X155666351Y-95142214D01*
X155564276Y-95218715D01*
X155551715Y-95231276D01*
X155475214Y-95333351D01*
X155466676Y-95348946D01*
X155421522Y-95469394D01*
X155417895Y-95484649D01*
X155412369Y-95535514D01*
X155412000Y-95542328D01*
X155412000Y-96314885D01*
X152654500Y-96314885D01*
X152654500Y-62681745D01*
X157833795Y-62681745D01*
X157833871Y-62682815D01*
X157837055Y-62687648D01*
X158117342Y-62902720D01*
X158122972Y-62906575D01*
X158427929Y-63091992D01*
X158433931Y-63095210D01*
X158757139Y-63246611D01*
X158763444Y-63249159D01*
X159101117Y-63364771D01*
X159107668Y-63366624D01*
X159455838Y-63445087D01*
X159462557Y-63446224D01*
X159817174Y-63486628D01*
X159823964Y-63487031D01*
X160180865Y-63488899D01*
X160187666Y-63488567D01*
X160542686Y-63451880D01*
X160549414Y-63450814D01*
X160898402Y-63375997D01*
X160904950Y-63374218D01*
X161243820Y-63262147D01*
X161250162Y-63259661D01*
X161574921Y-63111660D01*
X161580975Y-63108495D01*
X161887839Y-62926293D01*
X161893520Y-62922490D01*
X162178918Y-62708207D01*
X162184145Y-62703821D01*
X162196988Y-62691803D01*
X162205057Y-62678123D01*
X162205029Y-62677398D01*
X162199887Y-62669097D01*
X160032812Y-60502022D01*
X160018868Y-60494408D01*
X160017035Y-60494539D01*
X160010420Y-60498790D01*
X157841409Y-62667801D01*
X157833795Y-62681745D01*
X152654500Y-62681745D01*
X152654500Y-60121657D01*
X156657260Y-60121657D01*
X156675318Y-60478127D01*
X156676028Y-60484883D01*
X156732478Y-60837305D01*
X156733917Y-60843960D01*
X156828094Y-61188215D01*
X156830243Y-61194676D01*
X156961053Y-61526756D01*
X156963884Y-61532939D01*
X157129792Y-61848949D01*
X157133275Y-61854791D01*
X157332340Y-62151031D01*
X157336442Y-62156475D01*
X157460942Y-62304322D01*
X157473680Y-62312764D01*
X157484124Y-62306666D01*
X159647978Y-60142812D01*
X159654356Y-60131132D01*
X160384408Y-60131132D01*
X160384539Y-60132965D01*
X160388790Y-60139580D01*
X162554463Y-62305253D01*
X162568060Y-62312678D01*
X162577669Y-62305981D01*
X162682197Y-62184457D01*
X162686346Y-62179069D01*
X162888503Y-61884929D01*
X162892050Y-61879118D01*
X163061250Y-61564879D01*
X163064157Y-61558701D01*
X163198435Y-61228016D01*
X163200649Y-61221586D01*
X163298427Y-60878331D01*
X163299934Y-60871701D01*
X163360073Y-60519873D01*
X163360853Y-60513133D01*
X163382740Y-60155275D01*
X163382856Y-60151673D01*
X163382926Y-60131820D01*
X163382834Y-60128193D01*
X163363446Y-59770208D01*
X163362711Y-59763442D01*
X163305034Y-59411233D01*
X163303567Y-59404561D01*
X163208194Y-59060655D01*
X163206020Y-59054192D01*
X163074053Y-58722575D01*
X163071197Y-58716395D01*
X162904194Y-58400981D01*
X162900682Y-58395137D01*
X162700588Y-58099598D01*
X162696467Y-58094170D01*
X162579041Y-57955704D01*
X162566215Y-57947267D01*
X162555890Y-57953320D01*
X160392022Y-60117188D01*
X160384408Y-60131132D01*
X159654356Y-60131132D01*
X159655592Y-60128868D01*
X159655461Y-60127035D01*
X159651210Y-60120420D01*
X157485527Y-57954737D01*
X157471990Y-57947345D01*
X157462289Y-57954132D01*
X157350649Y-58084847D01*
X157346515Y-58090255D01*
X157145394Y-58385086D01*
X157141859Y-58390923D01*
X156973754Y-58705757D01*
X156970878Y-58711926D01*
X156837754Y-59043081D01*
X156835561Y-59049521D01*
X156738979Y-59393121D01*
X156737496Y-59399756D01*
X156678589Y-59751773D01*
X156677830Y-59758545D01*
X156657284Y-60114862D01*
X156657260Y-60121657D01*
X152654500Y-60121657D01*
X152654500Y-57581492D01*
X157834580Y-57581492D01*
X157834615Y-57582333D01*
X157839667Y-57590457D01*
X160007188Y-59757978D01*
X160021132Y-59765592D01*
X160022965Y-59765461D01*
X160029580Y-59761210D01*
X162198166Y-57592624D01*
X162205780Y-57578680D01*
X162205712Y-57577723D01*
X162200771Y-57570251D01*
X162196870Y-57566931D01*
X161912958Y-57350649D01*
X161907332Y-57346825D01*
X161601722Y-57162469D01*
X161595710Y-57159272D01*
X161271966Y-57008995D01*
X161265666Y-57006475D01*
X160927595Y-56892045D01*
X160921017Y-56890209D01*
X160572592Y-56812965D01*
X160565857Y-56811850D01*
X160211106Y-56772685D01*
X160204324Y-56772306D01*
X159847395Y-56771683D01*
X159840622Y-56772038D01*
X159485714Y-56809966D01*
X159479005Y-56811053D01*
X159130289Y-56887086D01*
X159123714Y-56888897D01*
X158785250Y-57002145D01*
X158778928Y-57004648D01*
X158454680Y-57153785D01*
X158448637Y-57156971D01*
X158142404Y-57340248D01*
X158136744Y-57344066D01*
X157852094Y-57559346D01*
X157846891Y-57563742D01*
X157842601Y-57567785D01*
X157834580Y-57581492D01*
X152654500Y-57581492D01*
X152654500Y-56350198D01*
X152656000Y-56330815D01*
X152658310Y-56315981D01*
X152658310Y-56315977D01*
X152659691Y-56307107D01*
X152657696Y-56291851D01*
X152656953Y-56266528D01*
X152669360Y-56093010D01*
X152671918Y-56075214D01*
X152671919Y-56075212D01*
X152684808Y-56015956D01*
X152714290Y-55880426D01*
X152719355Y-55863176D01*
X152789017Y-55676401D01*
X152796486Y-55660047D01*
X152892018Y-55485094D01*
X152901737Y-55469970D01*
X153021203Y-55310384D01*
X153032977Y-55296797D01*
X153132951Y-55196826D01*
X153173938Y-55155841D01*
X153187520Y-55144073D01*
X153347106Y-55024615D01*
X153362229Y-55014896D01*
X153537191Y-54919365D01*
X153553546Y-54911897D01*
X153740314Y-54842244D01*
X153757563Y-54837180D01*
X153952360Y-54794812D01*
X153970154Y-54792254D01*
X154062978Y-54785620D01*
X154136833Y-54780341D01*
X154153854Y-54781048D01*
X154153854Y-54781040D01*
X154162825Y-54781150D01*
X154171699Y-54782532D01*
X154180604Y-54781368D01*
X154203279Y-54778404D01*
X154219610Y-54777341D01*
X165685633Y-54777341D01*
X165705018Y-54778841D01*
G37*
%TD.AperFunction*%
%TA.AperFunction,Conductor*%
G36*
X162761121Y-88671002D02*
G01*
X162807614Y-88724658D01*
X162819000Y-88777000D01*
X162819000Y-90223517D01*
X162823064Y-90237359D01*
X162836478Y-90239393D01*
X162843184Y-90238534D01*
X162853262Y-90236392D01*
X163057255Y-90175191D01*
X163066842Y-90171433D01*
X163258095Y-90077739D01*
X163266945Y-90072464D01*
X163440328Y-89948792D01*
X163448193Y-89942145D01*
X163552897Y-89837805D01*
X163615268Y-89803889D01*
X163686075Y-89809077D01*
X163742837Y-89851723D01*
X163759819Y-89882826D01*
X163804385Y-90001705D01*
X163891739Y-90118261D01*
X164008295Y-90205615D01*
X164144684Y-90256745D01*
X164206866Y-90263500D01*
X165520500Y-90263500D01*
X165588621Y-90283502D01*
X165635114Y-90337158D01*
X165646500Y-90389500D01*
X165646500Y-90777501D01*
X165626498Y-90845622D01*
X165572842Y-90892115D01*
X165520500Y-90903501D01*
X165355770Y-90903501D01*
X165250871Y-90914384D01*
X165244340Y-90916563D01*
X165244335Y-90916564D01*
X165096189Y-90965990D01*
X165084474Y-90969898D01*
X164935311Y-91062203D01*
X164811383Y-91186347D01*
X164807542Y-91192578D01*
X164807540Y-91192581D01*
X164753198Y-91280741D01*
X164700427Y-91328235D01*
X164630355Y-91339659D01*
X164580666Y-91322402D01*
X164531987Y-91292921D01*
X164518243Y-91286715D01*
X164368356Y-91239744D01*
X164355306Y-91237131D01*
X164291479Y-91231266D01*
X164285691Y-91231000D01*
X164229115Y-91231000D01*
X164213876Y-91235475D01*
X164212671Y-91236865D01*
X164211000Y-91244548D01*
X164211000Y-92267000D01*
X164190998Y-92335121D01*
X164137342Y-92381614D01*
X164085000Y-92393000D01*
X162992116Y-92393000D01*
X162976877Y-92397475D01*
X162975672Y-92398865D01*
X162974709Y-92403294D01*
X162980132Y-92462315D01*
X162982743Y-92475351D01*
X163029715Y-92625243D01*
X163035921Y-92638988D01*
X163116824Y-92772574D01*
X163126131Y-92784443D01*
X163216239Y-92874551D01*
X163250265Y-92936863D01*
X163245200Y-93007678D01*
X163216239Y-93052741D01*
X163120361Y-93148619D01*
X163031528Y-93295301D01*
X162980247Y-93458938D01*
X162973500Y-93532365D01*
X162973500Y-93535263D01*
X162973501Y-93936344D01*
X162953499Y-94004464D01*
X162899844Y-94050958D01*
X162829570Y-94061062D01*
X162810662Y-94056838D01*
X162639200Y-94004416D01*
X162639198Y-94004416D01*
X162633302Y-94002613D01*
X162575449Y-93996736D01*
X162442666Y-93983248D01*
X162442661Y-93983248D01*
X162436538Y-93982626D01*
X162312475Y-93994354D01*
X162245771Y-94000659D01*
X162245769Y-94000659D01*
X162239638Y-94001239D01*
X162233734Y-94002999D01*
X162185496Y-94017379D01*
X162114500Y-94017671D01*
X162054616Y-93979534D01*
X162024857Y-93915075D01*
X162023500Y-93896630D01*
X162023500Y-91870586D01*
X162975087Y-91870586D01*
X162978475Y-91882124D01*
X162979865Y-91883329D01*
X162987548Y-91885000D01*
X163684885Y-91885000D01*
X163700124Y-91880525D01*
X163701329Y-91879135D01*
X163703000Y-91871452D01*
X163703000Y-91249116D01*
X163698525Y-91233877D01*
X163697135Y-91232672D01*
X163689452Y-91231001D01*
X163628295Y-91231001D01*
X163622546Y-91231264D01*
X163558685Y-91237132D01*
X163545649Y-91239743D01*
X163395757Y-91286715D01*
X163382012Y-91292921D01*
X163248426Y-91373824D01*
X163236557Y-91383131D01*
X163126131Y-91493557D01*
X163116824Y-91505426D01*
X163035921Y-91639012D01*
X163029715Y-91652757D01*
X162982744Y-91802644D01*
X162980131Y-91815694D01*
X162975087Y-91870586D01*
X162023500Y-91870586D01*
X162023500Y-90334052D01*
X162043502Y-90265931D01*
X162097158Y-90219438D01*
X162167432Y-90209334D01*
X162184654Y-90213055D01*
X162189899Y-90214579D01*
X162293250Y-90235606D01*
X162307299Y-90234410D01*
X162311000Y-90224065D01*
X162311000Y-88777000D01*
X162331002Y-88708879D01*
X162384658Y-88662386D01*
X162437000Y-88651000D01*
X162693000Y-88651000D01*
X162761121Y-88671002D01*
G37*
%TD.AperFunction*%
%TD*%
M02*
