%TF.GenerationSoftware,KiCad,Pcbnew,6.0.11+dfsg-1*%
%TF.CreationDate,2025-01-09T09:40:10-08:00*%
%TF.ProjectId,eUSB,65555342-2e6b-4696-9361-645f70636258,rev?*%
%TF.SameCoordinates,Original*%
%TF.FileFunction,Legend,Bot*%
%TF.FilePolarity,Positive*%
%FSLAX46Y46*%
G04 Gerber Fmt 4.6, Leading zero omitted, Abs format (unit mm)*
G04 Created by KiCad (PCBNEW 6.0.11+dfsg-1) date 2025-01-09 09:40:10*
%MOMM*%
%LPD*%
G01*
G04 APERTURE LIST*
%ADD10C,0.150000*%
G04 APERTURE END LIST*
D10*
X155428761Y-67585390D02*
X155476380Y-67490152D01*
X155476380Y-67299676D01*
X155428761Y-67204438D01*
X155333523Y-67156819D01*
X154952571Y-67156819D01*
X154857333Y-67204438D01*
X154809714Y-67299676D01*
X154809714Y-67490152D01*
X154857333Y-67585390D01*
X154952571Y-67633009D01*
X155047809Y-67633009D01*
X155143047Y-67156819D01*
X154476380Y-68061580D02*
X155285904Y-68061580D01*
X155381142Y-68109200D01*
X155428761Y-68156819D01*
X155476380Y-68252057D01*
X155476380Y-68442533D01*
X155428761Y-68537771D01*
X155381142Y-68585390D01*
X155285904Y-68633009D01*
X154476380Y-68633009D01*
X155428761Y-69061580D02*
X155476380Y-69204438D01*
X155476380Y-69442533D01*
X155428761Y-69537771D01*
X155381142Y-69585390D01*
X155285904Y-69633009D01*
X155190666Y-69633009D01*
X155095428Y-69585390D01*
X155047809Y-69537771D01*
X155000190Y-69442533D01*
X154952571Y-69252057D01*
X154904952Y-69156819D01*
X154857333Y-69109200D01*
X154762095Y-69061580D01*
X154666857Y-69061580D01*
X154571619Y-69109200D01*
X154524000Y-69156819D01*
X154476380Y-69252057D01*
X154476380Y-69490152D01*
X154524000Y-69633009D01*
X154952571Y-70394914D02*
X155000190Y-70537771D01*
X155047809Y-70585390D01*
X155143047Y-70633009D01*
X155285904Y-70633009D01*
X155381142Y-70585390D01*
X155428761Y-70537771D01*
X155476380Y-70442533D01*
X155476380Y-70061580D01*
X154476380Y-70061580D01*
X154476380Y-70394914D01*
X154524000Y-70490152D01*
X154571619Y-70537771D01*
X154666857Y-70585390D01*
X154762095Y-70585390D01*
X154857333Y-70537771D01*
X154904952Y-70490152D01*
X154952571Y-70394914D01*
X154952571Y-70061580D01*
X155190666Y-71775866D02*
X155190666Y-72252057D01*
X155476380Y-71680628D02*
X154476380Y-72013961D01*
X155476380Y-72347295D01*
X155476380Y-73109200D02*
X154476380Y-73109200D01*
X155428761Y-73109200D02*
X155476380Y-73013961D01*
X155476380Y-72823485D01*
X155428761Y-72728247D01*
X155381142Y-72680628D01*
X155285904Y-72633009D01*
X155000190Y-72633009D01*
X154904952Y-72680628D01*
X154857333Y-72728247D01*
X154809714Y-72823485D01*
X154809714Y-73013961D01*
X154857333Y-73109200D01*
X155476380Y-74013961D02*
X154952571Y-74013961D01*
X154857333Y-73966342D01*
X154809714Y-73871104D01*
X154809714Y-73680628D01*
X154857333Y-73585390D01*
X155428761Y-74013961D02*
X155476380Y-73918723D01*
X155476380Y-73680628D01*
X155428761Y-73585390D01*
X155333523Y-73537771D01*
X155238285Y-73537771D01*
X155143047Y-73585390D01*
X155095428Y-73680628D01*
X155095428Y-73918723D01*
X155047809Y-74013961D01*
X154809714Y-74490152D02*
X155809714Y-74490152D01*
X154857333Y-74490152D02*
X154809714Y-74585390D01*
X154809714Y-74775866D01*
X154857333Y-74871104D01*
X154904952Y-74918723D01*
X155000190Y-74966342D01*
X155285904Y-74966342D01*
X155381142Y-74918723D01*
X155428761Y-74871104D01*
X155476380Y-74775866D01*
X155476380Y-74585390D01*
X155428761Y-74490152D01*
X154809714Y-75252057D02*
X154809714Y-75633009D01*
X154476380Y-75394914D02*
X155333523Y-75394914D01*
X155428761Y-75442533D01*
X155476380Y-75537771D01*
X155476380Y-75633009D01*
X155428761Y-76347295D02*
X155476380Y-76252057D01*
X155476380Y-76061580D01*
X155428761Y-75966342D01*
X155333523Y-75918723D01*
X154952571Y-75918723D01*
X154857333Y-75966342D01*
X154809714Y-76061580D01*
X154809714Y-76252057D01*
X154857333Y-76347295D01*
X154952571Y-76394914D01*
X155047809Y-76394914D01*
X155143047Y-75918723D01*
X155476380Y-76823485D02*
X154809714Y-76823485D01*
X155000190Y-76823485D02*
X154904952Y-76871104D01*
X154857333Y-76918723D01*
X154809714Y-77013961D01*
X154809714Y-77109200D01*
X154476380Y-78061580D02*
X155476380Y-78394914D01*
X154476380Y-78728247D01*
X155381142Y-79061580D02*
X155428761Y-79109200D01*
X155476380Y-79061580D01*
X155428761Y-79013961D01*
X155381142Y-79061580D01*
X155476380Y-79061580D01*
X154571619Y-79490152D02*
X154524000Y-79537771D01*
X154476380Y-79633009D01*
X154476380Y-79871104D01*
X154524000Y-79966342D01*
X154571619Y-80013961D01*
X154666857Y-80061580D01*
X154762095Y-80061580D01*
X154904952Y-80013961D01*
X155476380Y-79442533D01*
X155476380Y-80061580D01*
X156086380Y-68966342D02*
X156800666Y-68966342D01*
X156943523Y-68918723D01*
X157038761Y-68823485D01*
X157086380Y-68680628D01*
X157086380Y-68585390D01*
X157086380Y-69871104D02*
X156562571Y-69871104D01*
X156467333Y-69823485D01*
X156419714Y-69728247D01*
X156419714Y-69537771D01*
X156467333Y-69442533D01*
X157038761Y-69871104D02*
X157086380Y-69775866D01*
X157086380Y-69537771D01*
X157038761Y-69442533D01*
X156943523Y-69394914D01*
X156848285Y-69394914D01*
X156753047Y-69442533D01*
X156705428Y-69537771D01*
X156705428Y-69775866D01*
X156657809Y-69871104D01*
X156419714Y-70347295D02*
X157086380Y-70347295D01*
X156514952Y-70347295D02*
X156467333Y-70394914D01*
X156419714Y-70490152D01*
X156419714Y-70633009D01*
X156467333Y-70728247D01*
X156562571Y-70775866D01*
X157086380Y-70775866D01*
X156419714Y-71680628D02*
X157086380Y-71680628D01*
X156419714Y-71252057D02*
X156943523Y-71252057D01*
X157038761Y-71299676D01*
X157086380Y-71394914D01*
X157086380Y-71537771D01*
X157038761Y-71633009D01*
X156991142Y-71680628D01*
X157086380Y-72585390D02*
X156562571Y-72585390D01*
X156467333Y-72537771D01*
X156419714Y-72442533D01*
X156419714Y-72252057D01*
X156467333Y-72156819D01*
X157038761Y-72585390D02*
X157086380Y-72490152D01*
X157086380Y-72252057D01*
X157038761Y-72156819D01*
X156943523Y-72109200D01*
X156848285Y-72109200D01*
X156753047Y-72156819D01*
X156705428Y-72252057D01*
X156705428Y-72490152D01*
X156657809Y-72585390D01*
X157086380Y-73061580D02*
X156419714Y-73061580D01*
X156610190Y-73061580D02*
X156514952Y-73109200D01*
X156467333Y-73156819D01*
X156419714Y-73252057D01*
X156419714Y-73347295D01*
X156419714Y-73585390D02*
X157086380Y-73823485D01*
X156419714Y-74061580D02*
X157086380Y-73823485D01*
X157324476Y-73728247D01*
X157372095Y-73680628D01*
X157419714Y-73585390D01*
X156181619Y-75156819D02*
X156134000Y-75204438D01*
X156086380Y-75299676D01*
X156086380Y-75537771D01*
X156134000Y-75633009D01*
X156181619Y-75680628D01*
X156276857Y-75728247D01*
X156372095Y-75728247D01*
X156514952Y-75680628D01*
X157086380Y-75109200D01*
X157086380Y-75728247D01*
X156086380Y-76347295D02*
X156086380Y-76442533D01*
X156134000Y-76537771D01*
X156181619Y-76585390D01*
X156276857Y-76633009D01*
X156467333Y-76680628D01*
X156705428Y-76680628D01*
X156895904Y-76633009D01*
X156991142Y-76585390D01*
X157038761Y-76537771D01*
X157086380Y-76442533D01*
X157086380Y-76347295D01*
X157038761Y-76252057D01*
X156991142Y-76204438D01*
X156895904Y-76156819D01*
X156705428Y-76109200D01*
X156467333Y-76109200D01*
X156276857Y-76156819D01*
X156181619Y-76204438D01*
X156134000Y-76252057D01*
X156086380Y-76347295D01*
X156181619Y-77061580D02*
X156134000Y-77109200D01*
X156086380Y-77204438D01*
X156086380Y-77442533D01*
X156134000Y-77537771D01*
X156181619Y-77585390D01*
X156276857Y-77633009D01*
X156372095Y-77633009D01*
X156514952Y-77585390D01*
X157086380Y-77013961D01*
X157086380Y-77633009D01*
X156086380Y-78537771D02*
X156086380Y-78061580D01*
X156562571Y-78013961D01*
X156514952Y-78061580D01*
X156467333Y-78156819D01*
X156467333Y-78394914D01*
X156514952Y-78490152D01*
X156562571Y-78537771D01*
X156657809Y-78585390D01*
X156895904Y-78585390D01*
X156991142Y-78537771D01*
X157038761Y-78490152D01*
X157086380Y-78394914D01*
X157086380Y-78156819D01*
X157038761Y-78061580D01*
X156991142Y-78013961D01*
M02*
